{"title":"Teen.Beach.2.2015.DVDRip.x264-MenaceIISociety","uid":12067381,"size":1378474138,"categoryP":"video","categoryS":"movies","magnet":"?xt=urn:btih:de5ede8d9c18681b1091f21ac1d39b280d0e731a&amp;dn=Teen.Beach.2.2015.DVDRip.x264-MenaceIISociety&amp;tr=udp%3A%2F%2Ftracker.openbittorrent.com%3A80&amp;tr=udp%3A%2F%2Fopen.demonii.com%3A1337&amp;tr=udp%3A%2F%2Ftracker.coppersurfer.tk%3A6969&amp;tr=udp%3A%2F%2Fexodus.desync.com%3A6969","seeders":5,"leechers":1,"uploader":"xxxlavalxxx","files":4,"time":1435417815,"description":" &lt;a href=&quot;http://extraimago.com/image/sBJ&quot; rel=&quot;nofollow&quot; target=&quot;_NEW&quot;&gt;http://extraimago.com/image/sBJ&lt;/a&gt;\n &lt;a href=&quot;\nhttp://www.imdb.com/title/tt3764966/&quot; rel=&quot;nofollow&quot; target=&quot;_NEW&quot;&gt;\nhttp://www.imdb.com/title/tt3764966/&lt;/a&gt;\n\n\nModern day teens Mack and Brady get a real world visit from Lela, Tanner, Butchy, and other surfer and biker pals from the beach party film within a film, West Side Story.\n\nDirector: Jeffrey Hornaday\nWriters: Dan Berendsen (story), Billy Eddy (teleplay)\nStars: Maia Mitchell, Grace Phipps, Mollee Gray \nGenres: Family | Musical\nCountry: USA\nLanguage: English\n\n\nTeen.Beach.2.2015.DVDRip.x264-MenaceIISociety\n &lt;a href=&quot;\nhttp://www.imdb.com/title/tt3764966/&quot; rel=&quot;nofollow&quot; target=&quot;_NEW&quot;&gt;\nhttp://www.imdb.com/title/tt3764966/&lt;/a&gt;\nSource: NTSC-DVDR [THANKS]\n\nGeneral\nComplete name: Teen.Beach.2.2015.DVDRip.x264-MenaceIISociety.mp4\nFormat: MPEG-4\nFormat profile: Base Media\nCodec ID: isom\nFile size: 1.26 GiB\nDuration: 1h 43mn\nOverall bit rate mode: Variable\nOverall bit rate: 1 740 Kbps\nEncoded date: UTC 2015-06-27 10:39:01\nTagged date: UTC 2015-06-27 10:39:01\n\nVideo\nID: 1\nFormat: AVC\nFormat/Info: Advanced Video Codec\nFormat profile: &lt;a class=&quot;__cf_email__&quot; href=&quot;/cdn-cgi/l/email-protection&quot; data-cfemail=&quot;6028090708202c544e51&quot;&gt;[email&amp;#160;protected]&lt;/a&gt;&lt;script data-cfhash='f9e31' type=&quot;text/javascript&quot;&gt;\n/* &lt;![CDATA[ */!function(){try{var t=&quot;currentScript&quot;in document?document.currentScript:function(){for(var t=document.getElementsByTagName(&quot;script&quot;),e=t.length;e--;)if(t[e].getAttribute(&quot;data-cfhash&quot;))return t[e]}();if(t&amp;&amp;t.previousSibling){var e,r,n,i,c=t.previousSibling,a=c.getAttribute(&quot;data-cfemail&quot;);if(a){for(e=&quot;&quot;,r=parseInt(a.substr(0,2),16),n=2;a.length-n;n+=2)i=parseInt(a.substr(n,2),16)^r,e+=String.fromCharCode(i);e=document.createTextNode(e),c.parentNode.replaceChild(e,c)}t.parentNode.removeChild(t);}}catch(u){}}()/* ]]&gt; */&lt;/script&gt;\nFormat settings, CABAC: Yes\nFormat settings, ReFrames: 3 frames\nCodec ID: avc1\nCodec ID/Info: Advanced Video Coding\nDuration: 1h 43mn\nBit rate mode: Variable\nBit rate: 1 415 Kbps\nMaximum bit rate: 40.0 Mbps\nWidth: 720 pixels\nHeight: 400 pixels\nDisplay aspect ratio: 16:9\nFrame rate mode: Constant\nFrame rate: 23.976 fps\nColor space: YUV\nChroma subsampling: 4:2:0\nBit depth: 8 bits\nScan type: Progressive\nBits/(Pixel*Frame): 0.205\nStream size: 1.03 GiB (81%)\nWriting library: x264 core 146 r2538 121396c\n\nAudio\nID: 2\nFormat: AAC\nFormat/Info: Advanced Audio Codec\nFormat profile: LC\nCodec ID: 40\nDuration: 1h 43mn\nBit rate mode: Variable\nBit rate: 320 Kbps\nMaximum bit rate: 382 Kbps\nChannel count: 6 channels\nChannel positions: Front: L C R, Side: L R, LFE\nSampling rate: 48.0 KHz\nCompression mode: Lossy\nStream size: 238 MiB (18%)\nEncoded date: UTC 2015-06-27 09:57:16\n\n &lt;a href=&quot;\nhttp://extraimago.com/image/sBK&quot; rel=&quot;nofollow&quot; target=&quot;_NEW&quot;&gt;\nhttp://extraimago.com/image/sBK&lt;/a&gt; &lt;a href=&quot;\nhttp://extraimago.com/image/sBZ&quot; rel=&quot;nofollow&quot; target=&quot;_NEW&quot;&gt;\nhttp://extraimago.com/image/sBZ&lt;/a&gt; &lt;a href=&quot;\nhttp://extraimago.com/image/sBe&quot; rel=&quot;nofollow&quot; target=&quot;_NEW&quot;&gt;\nhttp://extraimago.com/image/sBe&lt;/a&gt; &lt;a href=&quot;\nhttp://extraimago.com/image/sB4&quot; rel=&quot;nofollow&quot; target=&quot;_NEW&quot;&gt;\nhttp://extraimago.com/image/sB4&lt;/a&gt; &lt;a href=&quot;\nhttp://extraimago.com/image/sBB&quot; rel=&quot;nofollow&quot; target=&quot;_NEW&quot;&gt;\nhttp://extraimago.com/image/sBB&lt;/a&gt;","torrent":{"xt":"urn:btih:de5ede8d9c18681b1091f21ac1d39b280d0e731a","amp;dn":"Teen.Beach.2.2015.DVDRip.x264-MenaceIISociety","amp;tr":["udp%3A%2F%2Ftracker.openbittorrent.com%3A80","udp%3A%2F%2Fopen.demonii.com%3A1337","udp%3A%2F%2Ftracker.coppersurfer.tk%3A6969","udp%3A%2F%2Fexodus.desync.com%3A6969"],"infoHash":"de5ede8d9c18681b1091f21ac1d39b280d0e731a","infoHashBuffer":{"type":"Buffer","data":[222,94,222,141,156,24,104,27,16,145,242,26,193,211,155,40,13,14,115,26]},"announce":[],"urlList":[]}}